<!DOCTYPE svg PUBLIC "-//W3C//DTD SVG 20010904//EN" "http://www.w3.org/TR/2001/REC-SVG-20010904/DTD/svg10.dtd">
<svg version="1.0" xmlns="http://www.w3.org/2000/svg" width="500px" height="500px" viewBox="0 0 5000 5000" preserveAspectRatio="xMidYMid meet">
<g id="layer101" fill="#ffffff" stroke="none">
 <path d="M0 2500 l0 -2500 2500 0 2500 0 0 2500 0 2500 -2500 0 -2500 0 0 -2500z m4244 875 c28 -55 141 -275 250 -490 109 -214 257 -503 327 -641 71 -138 129 -254 129 -258 0 -3 -59 -6 -130 -6 l-130 0 -207 415 c-115 228 -210 415 -213 415 -3 0 -98 -187 -213 -415 l-207 -415 -145 0 c-80 0 -145 3 -145 8 0 4 11 27 25 51 14 23 25 45 25 48 0 3 -19 -11 -41 -32 -86 -78 -222 -115 -419 -115 -308 0 -505 108 -545 298 l-7 32 130 0 129 0 18 -41 c38 -83 122 -122 265 -122 193 0 300 81 300 225 l0 56 -267 4 c-232 4 -278 8 -345 26 -133 36 -230 98 -266 168 l-17 33 0 -97 c0 -53 -7 -122 -14 -152 -67 -277 -303 -443 -606 -426 -162 9 -273 49 -366 133 l-39 35 0 -301 0 -301 -130 0 -130 0 0 423 0 422 -25 -70 c-46 -131 -124 -219 -250 -281 -105 -52 -193 -67 -360 -61 -153 5 -223 20 -321 67 -115 56 -192 144 -242 278 -34 91 -43 312 -18 412 25 96 59 163 113 221 118 128 265 179 514 179 151 0 250 -19 349 -67 97 -47 193 -161 214 -255 l6 -28 -130 0 -130 0 -19 39 c-26 51 -91 106 -150 126 -134 48 -303 23 -403 -58 -61 -49 -113 -143 -123 -219 l-6 -48 490 0 491 0 0 240 0 241 123 -3 122 -3 3 -67 c2 -38 6 -68 10 -68 5 0 25 18 46 39 85 87 232 135 406 135 98 -1 127 -5 195 -28 100 -34 157 -70 227 -144 56 -58 79 -94 109 -166 l16 -39 6 56 c20 199 201 326 465 327 169 0 329 -53 429 -144 l52 -47 3 73 3 73 113 0 113 0 -1 -367 c0 -202 -5 -391 -10 -419 -6 -29 -9 -53 -7 -55 1 -1 37 63 80 144 42 81 140 266 218 412 78 146 143 270 145 275 3 6 -43 100 -101 210 -57 110 -105 204 -105 208 0 4 61 6 136 5 l136 -3 52 -100z"/>
 <path d="M1827 2930 c-119 -21 -229 -112 -276 -226 -35 -86 -41 -228 -13 -321 49 -161 159 -252 324 -270 72 -7 169 11 231 45 229 124 263 497 62 681 -86 78 -209 112 -328 91z"/>
 <path d="M2918 2925 c-78 -29 -120 -75 -133 -147 -10 -51 2 -94 37 -133 59 -68 191 -95 461 -95 l160 0 -5 83 c-3 67 -10 92 -34 136 -62 115 -180 172 -353 170 -54 0 -112 -6 -133 -14z"/>
 <path d="M290 2387 c0 -51 55 -151 104 -192 143 -117 379 -119 511 -4 46 40 95 139 95 192 l0 37 -355 0 -355 0 0 -33z"/>
 </g>

</svg>