<!DOCTYPE svg PUBLIC "-//W3C//DTD SVG 20010904//EN" "http://www.w3.org/TR/2001/REC-SVG-20010904/DTD/svg10.dtd">
<svg version="1.0" xmlns="http://www.w3.org/2000/svg" width="500px" height="500px" viewBox="0 0 5000 5000" preserveAspectRatio="xMidYMid meet">
<g id="layer101" fill="#fdfdfd" stroke="none">
 <path d="M0 2500 l0 -2500 2500 0 2500 0 0 2500 0 2500 -2500 0 -2500 0 0 -2500z m1004 1584 c144 -26 338 -76 461 -120 39 -14 93 -32 120 -40 65 -20 85 -38 58 -52 -14 -8 -38 -4 -94 14 -117 39 -324 91 -437 109 -149 25 -310 18 -373 -15 -26 -14 -54 -38 -63 -53 -21 -37 -21 -105 0 -159 32 -83 148 -241 265 -363 l116 -120 89 24 c240 65 391 88 629 97 212 8 380 -6 630 -55 164 -32 383 -108 505 -176 30 -17 62 -34 70 -38 100 -47 267 -191 347 -297 50 -66 111 -187 129 -255 8 -27 14 -98 14 -156 0 -87 -5 -121 -26 -185 -28 -88 -67 -161 -123 -232 -55 -70 -56 -71 -24 -83 89 -36 136 -53 203 -76 41 -13 84 -28 95 -33 44 -19 192 -62 308 -90 327 -79 514 -76 599 10 35 34 38 42 38 92 0 210 -385 610 -1005 1043 -48 33 -104 73 -126 88 -40 28 -47 49 -18 55 26 5 622 -407 711 -491 7 -6 58 -48 113 -92 121 -97 425 -397 486 -480 138 -188 181 -298 158 -406 -8 -38 -19 -56 -51 -84 -68 -58 -121 -70 -293 -69 -192 1 -348 31 -694 134 -129 38 -613 225 -673 260 -29 17 -48 12 -99 -25 -94 -67 -295 -159 -469 -213 -78 -24 -252 -61 -365 -78 -150 -22 -520 -25 -675 -6 -140 18 -419 82 -485 112 -11 4 -42 16 -70 26 -77 27 -266 126 -347 183 -157 108 -299 281 -355 430 -30 82 -41 231 -24 323 45 243 226 454 536 623 39 21 72 40 75 42 2 2 -38 45 -90 96 -111 108 -198 202 -222 238 -9 15 -23 32 -30 40 -21 22 -76 112 -105 171 -38 77 -45 202 -14 252 71 114 264 140 595 80z"/>
 <path d="M1575 3273 c-49 -8 -93 -18 -97 -22 -7 -6 30 -155 90 -361 l19 -65 189 0 188 0 29 95 c15 52 32 111 37 130 5 19 22 75 36 124 26 86 27 89 9 102 -26 19 -378 17 -500 -3z"/>
 <path d="M1190 3172 c-165 -70 -400 -221 -400 -259 0 -9 5 -33 12 -55 l11 -38 186 2 186 3 23 80 c38 129 73 259 75 275 3 23 -23 21 -93 -8z"/>
 <path d="M2411 3178 c-24 -66 -71 -234 -71 -256 0 -12 7 -40 16 -62 l16 -40 186 2 185 3 23 85 c37 133 44 119 -101 200 -56 31 -204 90 -227 90 -10 0 -22 -10 -27 -22z"/>
 <path d="M3055 2738 c-2 -7 -15 -51 -29 -98 -13 -47 -36 -123 -51 -170 -14 -47 -37 -121 -49 -165 -13 -44 -49 -164 -80 -266 -31 -102 -56 -189 -56 -193 0 -42 184 116 249 214 54 83 61 94 67 110 3 8 14 37 25 65 11 27 25 90 31 140 10 81 9 99 -10 176 -33 135 -82 230 -97 187z"/>
 <path d="M610 2668 c-39 -88 -54 -176 -48 -283 7 -123 42 -211 133 -340 60 -84 191 -204 206 -188 7 7 -33 167 -75 303 -16 54 -19 63 -100 350 -35 123 -68 226 -73 227 -6 2 -25 -29 -43 -69z"/>
 <path d="M865 2658 c-7 -18 119 -461 132 -465 6 -2 16 15 22 39 6 24 18 66 26 93 7 28 31 111 52 186 22 75 37 141 35 147 -5 17 -261 17 -267 0z"/>
 <path d="M1644 2656 c-5 -13 46 -222 66 -271 4 -11 18 -58 31 -105 12 -47 25 -89 29 -93 9 -10 20 20 60 158 17 61 40 139 50 175 11 36 22 84 26 108 l7 42 -132 0 c-106 0 -133 -3 -137 -14z"/>
 <path d="M2416 2662 c-2 -4 18 -86 45 -182 27 -96 56 -200 64 -229 8 -30 19 -59 25 -65 5 -5 10 -8 10 -5 0 2 14 51 31 109 17 58 36 128 44 155 7 28 23 85 34 128 12 43 19 82 16 88 -7 11 -262 13 -269 1z"/>
 <path d="M1436 2518 c-13 -46 -34 -117 -46 -158 -12 -41 -40 -133 -62 -205 -22 -71 -46 -152 -53 -180 -8 -27 -28 -95 -44 -150 -45 -145 -48 -136 67 -174 99 -33 352 -81 423 -81 31 0 39 4 39 18 0 15 -66 257 -115 417 -17 56 -137 487 -155 553 -6 23 -15 42 -20 42 -5 0 -20 -37 -34 -82z"/>
 <path d="M2230 2563 c-6 -21 -15 -47 -20 -58 -5 -11 -45 -144 -90 -295 -45 -151 -85 -288 -91 -305 -45 -149 -89 -304 -89 -318 0 -14 10 -17 46 -17 139 0 505 81 517 114 5 12 -13 86 -58 241 -16 58 -147 520 -172 613 -10 34 -21 62 -25 62 -3 0 -12 -17 -18 -37z"/>
 </g>

</svg>