<!DOCTYPE svg PUBLIC "-//W3C//DTD SVG 20010904//EN" "http://www.w3.org/TR/2001/REC-SVG-20010904/DTD/svg10.dtd">
<svg version="1.0" xmlns="http://www.w3.org/2000/svg" width="500px" height="500px" viewBox="0 0 5000 5000" preserveAspectRatio="xMidYMid meet">
<g id="layer101" fill="#ffffff" stroke="none">
 <path d="M0 2500 l0 -2500 2500 0 2500 0 0 2500 0 2500 -2500 0 -2500 0 0 -2500z m1140 1427 c0 -221 20 -696 40 -937 74 -898 218 -1553 395 -1798 55 -76 93 -102 150 -102 150 0 291 272 405 782 39 172 68 352 110 688 33 267 59 667 67 1038 l6 312 234 0 233 0 0 -64 c0 -262 34 -881 65 -1181 19 -185 66 -528 84 -615 5 -25 15 -72 21 -105 70 -361 189 -678 296 -792 30 -32 90 -63 121 -63 171 0 319 341 443 1020 36 195 87 632 111 935 16 209 39 756 39 938 l0 167 235 0 235 0 0 -139 c0 -174 -16 -492 -35 -716 -105 -1207 -416 -2120 -808 -2376 -267 -174 -557 -14 -800 441 -54 101 -162 367 -202 500 -16 52 -32 98 -35 103 -4 4 -19 -36 -35 -90 -32 -108 -141 -390 -182 -468 -93 -180 -164 -285 -253 -376 -82 -83 -145 -126 -229 -155 -319 -113 -626 206 -856 886 -23 69 -47 143 -53 165 -7 22 -19 65 -27 95 -141 501 -245 1316 -245 1922 l0 208 235 0 235 0 0 -223z"/>
 </g>

</svg>