<!DOCTYPE svg PUBLIC "-//W3C//DTD SVG 20010904//EN" "http://www.w3.org/TR/2001/REC-SVG-20010904/DTD/svg10.dtd">
<svg version="1.0" xmlns="http://www.w3.org/2000/svg" width="473px" height="398px" viewBox="0 0 4730 3980" preserveAspectRatio="xMidYMid meet">
<g id="layer101" fill="#ffffff" stroke="none">
 <path d="M0 1990 l0 -1990 616 0 617 0 -74 37 c-95 47 -250 199 -337 330 -299 448 -527 1212 -647 2170 -47 377 -85 955 -85 1294 l0 149 -45 0 -45 0 0 -1990z"/>
 <path d="M664 3651 c29 -1443 198 -2615 451 -3126 135 -274 274 -326 422 -160 262 293 477 1345 529 2584 3 80 7 162 9 181 1 19 3 153 4 298 l1 262 288 0 289 0 6 -382 c4 -211 8 -399 11 -418 2 -19 7 -91 11 -160 21 -425 86 -969 160 -1360 69 -360 149 -630 245 -825 177 -360 364 -367 535 -20 139 280 260 793 340 1445 65 534 95 993 111 1708 l7 302 -1713 0 -1713 0 7 -329z"/>
 <path d="M4650 3838 c0 -306 -31 -818 -71 -1173 -96 -866 -298 -1644 -546 -2105 -135 -252 -307 -451 -452 -523 l-74 -37 612 0 611 0 0 1990 0 1990 -40 0 -40 0 0 -142z"/>
 <path d="M2327 1212 c-88 -294 -229 -611 -359 -809 -103 -156 -255 -305 -367 -361 l-83 -42 852 0 852 0 -83 42 c-69 34 -103 60 -190 147 -164 164 -291 373 -417 686 -59 147 -152 423 -152 451 0 41 -19 0 -53 -114z"/>
 </g>

</svg>